<?xml version="1.0" encoding="UTF-8" standalone="no"?>
<svg
   xmlns:dc="http://purl.org/dc/elements/1.1/"
   xmlns:cc="http://creativecommons.org/ns#"
   xmlns:rdf="http://www.w3.org/1999/02/22-rdf-syntax-ns#"
   xmlns:svg="http://www.w3.org/2000/svg"
   xmlns="http://www.w3.org/2000/svg"
   xmlns:sodipodi="http://sodipodi.sourceforge.net/DTD/sodipodi-0.dtd"
   xmlns:inkscape="http://www.inkscape.org/namespaces/inkscape"
   sodipodi:docname="drawing.svg"
   inkscape:version="1.0 (4035a4f, 2020-05-01)"
   id="svg8"
   version="1.1"
   viewBox="0 0 210 297"
   height="297mm"
   width="210mm">
  <defs
     id="defs2" />
  <sodipodi:namedview
     inkscape:window-maximized="0"
     inkscape:window-y="23"
     inkscape:window-x="0"
     inkscape:window-height="790"
     inkscape:window-width="1252"
     showgrid="false"
     inkscape:document-rotation="0"
     inkscape:current-layer="layer1"
     inkscape:document-units="mm"
     inkscape:cy="560"
     inkscape:cx="400"
     inkscape:zoom="0.35"
     inkscape:pageshadow="2"
     inkscape:pageopacity="0.0"
     borderopacity="1.0"
     bordercolor="#666666"
     pagecolor="#ffffff"
     id="base" />
  <metadata
     id="metadata5">
    <rdf:RDF>
      <cc:Work
         rdf:about="">
        <dc:format>image/svg+xml</dc:format>
        <dc:type
           rdf:resource="http://purl.org/dc/dcmitype/StillImage" />
        <dc:title></dc:title>
      </cc:Work>
    </rdf:RDF>
  </metadata>
  <g
     id="layer1"
     inkscape:groupmode="layer"
     inkscape:label="Layer 1">
    <path
       d="M 66.047449,92.359057 C 61.174788,85.618956 65.719531,76.548994 72.452445,73.225132 82.793725,68.119914 94.877778,74.559408 99.030648,84.674139 104.60336,98.247044 96.228669,113.39449 82.94923,118.2767 66.327748,124.38761 48.182297,114.11867 42.616721,97.818297 35.942516,78.270995 48.056428,57.201762 67.269702,50.981113 89.64994,43.735102 113.57453,57.648175 120.43006,79.688184 128.24935,104.82658 112.57781,131.54562 87.782402,139.02037 59.948391,147.41113 30.488892,130.01705 22.407764,102.52688 13.448919,72.050918 32.53367,39.899102 62.666044,31.222492 95.737029,21.69971 130.53795,42.446646 139.80057,75.174956 149.88281,110.79932 127.49933,148.21028 92.216325,158.0505 54.075958,168.68762 14.090524,144.69086 3.6802422,106.8903 1.7510871,99.885382 0.85403612,92.602547 1.0135567,85.338972"
       sodipodi:t0="0.093726985"
       sodipodi:argument="-17.916307"
       sodipodi:radius="75.479126"
       sodipodi:revolution="3.3612154"
       sodipodi:expansion="0.82999998"
       sodipodi:cy="89.958336"
       sodipodi:cx="76.351196"
       id="path12"
       style="fill:none;fill-rule:evenodd;stroke:#000000;stroke-width:0.264583"
       sodipodi:type="spiral" />
    <path
       inkscape:transform-center-y="3.7978712"
       inkscape:transform-center-x="1.1680114"
       d="M 53.672613,257.77976 40.815952,226.05782 7.3955316,218.66518 33.591967,196.63514 30.29531,162.56598 l 29.046949,18.10664 31.382973,-13.66326 -8.244434,33.22055 22.692402,25.6248 -34.142289,2.4248 z"
       inkscape:randomized="0"
       inkscape:rounded="0"
       inkscape:flatsided="false"
       sodipodi:arg2="2.2725122"
       sodipodi:arg1="1.6441937"
       sodipodi:r2="25.771767"
       sodipodi:r1="51.543537"
       sodipodi:cy="206.375"
       sodipodi:cx="57.452377"
       sodipodi:sides="5"
       id="path14"
       style="fill:#0000ff;stroke-width:0.264583"
       sodipodi:type="star" />
  </g>
</svg>
